<svg xmlns="http://www.w3.org/2000/svg" xmlns:xlink="http://www.w3.org/1999/xlink" width="1280" zoomAndPan="magnify" viewBox="0 0 960 540.000001" height="720" preserveAspectRatio="xMidYMid meet" version="1.2"><defs><clipPath id="87385e9113"><path d="M 0.886719 0 L 959.113281 0 L 959.113281 539 L 0.886719 539 Z M 0.886719 0 "/></clipPath><clipPath id="ed7a6c2d4a"><path d="M 0.886719 0 L 113.5625 0 L 113.5625 127 L 0.886719 127 Z M 0.886719 0 "/></clipPath><clipPath id="f1ad22520c"><path d="M 844 421.59375 L 959.113281 421.59375 L 959.113281 539 L 844 539 Z M 844 421.59375 "/></clipPath><clipPath id="2b7f8c12a1"><path d="M 42 525 L 67 525 L 67 539 L 42 539 Z M 42 525 "/></clipPath><clipPath id="46ec2d1665"><path d="M 0.886719 422 L 77 422 L 77 539 L 0.886719 539 Z M 0.886719 422 "/></clipPath><clipPath id="e2844c1f39"><path d="M 82 468 L 89.679688 468 L 89.679688 476 L 82 476 Z M 82 468 "/></clipPath><clipPath id="4bf02779cf"><path d="M 761 95 L 818 95 L 818 151.726562 L 761 151.726562 Z M 761 95 "/></clipPath><clipPath id="79c76da7c5"><path d="M 926 96 L 959.113281 96 L 959.113281 147 L 926 147 Z M 926 96 "/></clipPath><clipPath id="2cb791ae5b"><path d="M 655.066406 102 L 700 102 L 700 148 L 655.066406 148 Z M 655.066406 102 "/></clipPath></defs><g id="dff9d31b35"><g clip-rule="nonzero" clip-path="url(#87385e9113)"><path style=" stroke:none;fill-rule:nonzero;fill:#ffffff;fill-opacity:1;" d="M 0.886719 0 L 959.113281 0 L 959.113281 539 L 0.886719 539 Z M 0.886719 0 "/><path style=" stroke:none;fill-rule:nonzero;fill:#000000;fill-opacity:1;" d="M 0.886719 0 L 959.113281 0 L 959.113281 539 L 0.886719 539 Z M 0.886719 0 "/></g><g clip-rule="nonzero" clip-path="url(#ed7a6c2d4a)"><path style=" stroke:none;fill-rule:nonzero;fill:#ed2224;fill-opacity:1;" d="M -50.972656 7.019531 C -50.769531 6.589844 -50.558594 6.167969 -50.339844 5.75 C -43.644531 -6.976562 -32.96875 -15.4375 -18.128906 -12.40625 C -12.160156 -11.1875 -6.289062 -9.109375 -0.199219 -9.167969 C 10.589844 -9.277344 20.070312 -15.992188 28.414062 -22.785156 C 36.761719 -29.578125 45.332031 -37.035156 55.921875 -39.089844 C 58.972656 -39.683594 62.222656 -39.785156 65.105469 -38.617188 C 67.984375 -37.445312 70.398438 -34.800781 70.59375 -31.710938 C 70.953125 -26.09375 64.390625 -21.855469 64.578125 -16.226562 C 64.703125 -12.414062 68.167969 -9.285156 71.933594 -8.589844 C 75.699219 -7.890625 79.597656 -9.121094 82.933594 -11.003906 C 92.324219 -16.320312 98.078125 -26.074219 105.398438 -33.972656 C 106.320312 -34.96875 107.371094 -35.992188 108.714844 -36.199219 C 110.5625 -36.488281 112.347656 -35.03125 112.992188 -33.285156 C 113.640625 -31.539062 113.402344 -29.589844 112.992188 -27.769531 C 110.304688 -15.773438 101.140625 -6.484375 93.269531 2.988281 C 85.402344 12.464844 78.15625 24.199219 80.425781 36.277344 C 82.730469 48.519531 93.90625 56.8125 100.757812 67.242188 C 109.679688 80.828125 111.070312 98.152344 108.660156 114.203125 C 108.238281 117.015625 107.660156 119.921875 105.941406 122.195312 C 102.707031 126.464844 96.429688 127.15625 91.179688 126.015625 C 75.988281 122.726562 65.925781 108.375 52.011719 101.476562 C 42.515625 96.765625 31.585938 95.730469 20.976562 96.097656 C 10.371094 96.460938 -0.152344 98.140625 -10.757812 98.519531 C -14.648438 98.660156 -18.695312 98.589844 -22.195312 96.894531 C -25.953125 95.101562 -28.609375 91.652344 -30.894531 88.179688 C -37.265625 78.476562 -41.722656 67.964844 -44.273438 56.652344 C -44.875 53.960938 -45.273438 50.824219 -43.457031 48.730469 C -41.261719 46.175781 -37.234375 46.675781 -33.9375 47.402344 L -15.269531 51.476562 C -13.515625 51.863281 -11.578125 52.222656 -9.996094 51.375 C -7.3125 49.933594 -7.351562 45.992188 -8.625 43.238281 C -11.191406 37.675781 -16.90625 34.175781 -22.722656 32.183594 C -28.542969 30.191406 -34.722656 29.382812 -40.527344 27.378906 C -46.046875 25.472656 -51.722656 21.765625 -52.714844 16.035156 C -53.246094 12.964844 -52.320312 9.863281 -50.972656 7.019531 Z M -50.972656 7.019531 "/></g><g clip-rule="nonzero" clip-path="url(#f1ad22520c)"><path style=" stroke:none;fill-rule:nonzero;fill:#ed2224;fill-opacity:1;" d="M 846.25 468.402344 C 846.453125 467.976562 846.664062 467.554688 846.882812 467.132812 C 853.578125 454.40625 864.253906 445.945312 879.097656 448.976562 C 885.0625 450.195312 890.933594 452.273438 897.023438 452.214844 C 907.8125 452.105469 917.292969 445.394531 925.636719 438.597656 C 933.984375 431.804688 942.554688 424.347656 953.144531 422.292969 C 956.195312 421.699219 959.449219 421.597656 962.328125 422.765625 C 965.207031 423.9375 967.621094 426.582031 967.816406 429.671875 C 968.175781 435.289062 961.613281 439.527344 961.800781 445.15625 C 961.929688 448.96875 965.390625 452.097656 969.15625 452.792969 C 972.921875 453.492188 976.824219 452.261719 980.15625 450.378906 C 989.546875 445.0625 995.300781 435.308594 1002.621094 427.410156 C 1003.542969 426.414062 1004.59375 425.390625 1005.9375 425.183594 C 1007.785156 424.894531 1009.570312 426.351562 1010.214844 428.097656 C 1010.863281 429.84375 1010.625 431.792969 1010.214844 433.613281 C 1007.527344 445.609375 998.363281 454.898438 990.496094 464.371094 C 982.625 473.847656 975.378906 485.582031 977.648438 497.660156 C 979.953125 509.902344 991.128906 518.195312 997.980469 528.625 C 1006.902344 542.214844 1008.292969 559.535156 1005.882812 575.589844 C 1005.460938 578.398438 1004.882812 581.304688 1003.164062 583.578125 C 999.929688 587.847656 993.65625 588.539062 988.402344 587.398438 C 973.214844 584.109375 963.148438 569.757812 949.234375 562.859375 C 939.738281 558.148438 928.808594 557.113281 918.203125 557.480469 C 907.597656 557.84375 897.070312 559.523438 886.464844 559.902344 C 882.574219 560.042969 878.53125 559.972656 875.03125 558.28125 C 871.269531 556.484375 868.613281 553.035156 866.332031 549.5625 C 859.957031 539.859375 855.5 529.347656 852.953125 518.035156 C 852.347656 515.34375 851.953125 512.207031 853.765625 510.113281 C 855.960938 507.558594 859.992188 508.058594 863.289062 508.785156 L 881.953125 512.859375 C 883.707031 513.246094 885.644531 513.605469 887.230469 512.757812 C 889.910156 511.316406 889.871094 507.375 888.597656 504.621094 C 886.03125 499.058594 880.320312 495.558594 874.5 493.566406 C 868.679688 491.574219 862.5 490.765625 856.695312 488.761719 C 851.179688 486.855469 845.503906 483.148438 844.507812 477.417969 C 843.976562 474.347656 844.902344 471.246094 846.25 468.402344 Z M 846.25 468.402344 "/></g><g clip-rule="nonzero" clip-path="url(#2b7f8c12a1)"><path style=" stroke:none;fill-rule:nonzero;fill:#ed1c24;fill-opacity:1;" d="M 65.273438 534.21875 C 67.265625 532.222656 67.265625 528.992188 65.273438 527 C 63.28125 525.003906 60.050781 525.003906 58.0625 527 L 43.789062 541.28125 C 41.796875 543.273438 41.796875 546.507812 43.789062 548.5 C 45.78125 550.492188 49.011719 550.492188 51.003906 548.5 Z M 65.273438 534.21875 "/></g><g clip-rule="nonzero" clip-path="url(#46ec2d1665)"><path style=" stroke:none;fill-rule:nonzero;fill:#ed1c24;fill-opacity:1;" d="M 74.808594 467.367188 C 76.769531 465.40625 76.769531 462.222656 74.808594 460.261719 L 74.699219 460.152344 C 72.738281 458.1875 69.558594 458.1875 67.597656 460.152344 L 65.425781 462.324219 C 63.464844 464.285156 60.285156 464.285156 58.324219 462.324219 C 56.363281 460.359375 56.363281 457.179688 58.324219 455.214844 L 70.589844 442.9375 C 72.554688 440.972656 72.554688 437.792969 70.589844 435.828125 L 70.480469 435.71875 C 68.519531 433.753906 65.339844 433.753906 63.378906 435.71875 L 59.996094 439.105469 C 58.257812 440.84375 55.445312 440.800781 53.726562 439.039062 C 53.714844 439.027344 53.699219 439.011719 53.683594 438.996094 L 53.574219 438.886719 C 51.613281 436.925781 48.433594 436.925781 46.472656 438.886719 L 40.429688 444.9375 C 39.730469 445.636719 38.726562 445.957031 38.726562 445.957031 C 36.953125 446.59375 34.898438 446.207031 33.476562 444.785156 C 31.515625 442.824219 31.515625 439.640625 33.476562 437.675781 L 40.347656 430.800781 C 42.308594 428.839844 42.308594 425.65625 40.347656 423.695312 L 40.238281 423.582031 C 38.273438 421.621094 35.097656 421.621094 33.132812 423.582031 L 26.148438 430.574219 C 24.1875 432.539062 21.007812 432.539062 19.046875 430.574219 L 18.9375 430.464844 C 16.976562 428.5 13.796875 428.5 11.835938 430.464844 L 0.722656 441.585938 C -1.214844 443.523438 -4.34375 443.546875 -6.308594 441.652344 C -8.335938 439.699219 -8.296875 436.398438 -6.308594 434.40625 L -3.546875 431.644531 C -1.585938 429.679688 -1.585938 426.5 -3.546875 424.535156 L -3.65625 424.425781 C -5.617188 422.460938 -8.796875 422.460938 -10.757812 424.425781 L -21.589844 435.265625 C -22.519531 436.199219 -23.917969 436.535156 -25.140625 436.054688 C -26.972656 435.335938 -29.132812 435.714844 -30.609375 437.195312 L -40.277344 446.871094 C -41.753906 448.351562 -42.136719 450.511719 -41.417969 452.34375 C -40.9375 453.570312 -41.273438 454.96875 -42.203125 455.898438 L -59.375 473.085938 C -61.339844 475.050781 -61.339844 478.230469 -59.375 480.195312 L -59.265625 480.304688 C -57.304688 482.269531 -57.304688 485.449219 -59.265625 487.414062 L -68.691406 496.84375 C -70.652344 498.808594 -70.652344 501.988281 -68.691406 503.953125 C -66.730469 505.914062 -66.730469 509.097656 -68.691406 511.0625 L -72.738281 515.113281 C -74.699219 517.074219 -74.699219 520.257812 -72.738281 522.21875 L -72.628906 522.328125 C -70.667969 524.292969 -67.488281 524.292969 -65.527344 522.328125 L -63.355469 520.15625 C -61.394531 518.195312 -58.214844 518.195312 -56.253906 520.15625 C -54.289062 522.121094 -54.289062 525.300781 -56.253906 527.265625 L -68.519531 539.542969 C -70.480469 541.507812 -70.480469 544.6875 -68.519531 546.652344 L -68.410156 546.761719 C -66.449219 548.726562 -63.269531 548.726562 -61.308594 546.761719 L -57.925781 543.375 C -56.1875 541.636719 -53.375 541.679688 -51.65625 543.441406 C -51.640625 543.457031 -51.628906 543.46875 -51.613281 543.484375 L -51.503906 543.59375 C -49.542969 545.558594 -46.363281 545.558594 -44.402344 543.59375 L -39.777344 538.964844 C -38.832031 538.019531 -37.898438 537.007812 -36.652344 536.523438 C -34.882812 535.886719 -32.824219 536.273438 -31.402344 537.695312 C -29.441406 539.65625 -29.441406 542.839844 -31.402344 544.804688 L -38.273438 551.679688 C -40.234375 553.640625 -40.234375 556.824219 -38.273438 558.785156 L -38.164062 558.898438 C -36.203125 560.859375 -33.023438 560.859375 -31.0625 558.898438 L -24.078125 551.90625 C -22.117188 549.945312 -18.9375 549.945312 -16.976562 551.90625 L -16.867188 552.019531 C -14.90625 553.980469 -11.726562 553.980469 -9.761719 552.019531 L 1.277344 540.96875 C 3.269531 538.972656 6.566406 538.9375 8.519531 540.96875 C 10.410156 542.9375 10.386719 546.0625 8.449219 548.003906 L 5.617188 550.839844 C 3.65625 552.800781 3.65625 555.984375 5.617188 557.945312 L 5.726562 558.054688 C 7.691406 560.019531 10.867188 560.019531 12.832031 558.054688 L 25.15625 545.71875 C 26.488281 544.386719 28.417969 543.90625 30.246094 544.351562 C 31.917969 544.753906 33.753906 544.300781 35.054688 542.996094 L 38.878906 539.167969 C 40.183594 537.863281 40.632812 536.03125 40.230469 534.359375 C 39.789062 532.527344 40.265625 530.59375 41.597656 529.261719 L 61.449219 509.394531 C 63.410156 507.429688 63.410156 504.25 61.449219 502.285156 L 61.339844 502.175781 C 59.378906 500.210938 59.378906 497.03125 61.339844 495.066406 L 70.761719 485.636719 C 72.726562 483.671875 72.722656 480.488281 70.761719 478.527344 C 68.800781 476.5625 68.800781 473.382812 70.761719 471.417969 Z M 74.808594 467.367188 "/></g><path style=" stroke:none;fill-rule:nonzero;fill:#ed1c24;fill-opacity:1;" d="M 75.535156 517.988281 C 75.535156 518.324219 75.503906 518.660156 75.4375 518.988281 C 75.375 519.316406 75.277344 519.636719 75.148438 519.949219 C 75.019531 520.257812 74.863281 520.554688 74.675781 520.832031 C 74.488281 521.113281 74.277344 521.371094 74.039062 521.609375 C 73.800781 521.84375 73.542969 522.058594 73.265625 522.242188 C 72.984375 522.429688 72.691406 522.589844 72.382812 522.71875 C 72.070312 522.84375 71.75 522.941406 71.421875 523.007812 C 71.09375 523.074219 70.761719 523.105469 70.425781 523.105469 C 70.089844 523.105469 69.757812 523.074219 69.425781 523.007812 C 69.097656 522.941406 68.777344 522.84375 68.46875 522.71875 C 68.15625 522.589844 67.863281 522.429688 67.585938 522.242188 C 67.304688 522.058594 67.046875 521.84375 66.808594 521.609375 C 66.570312 521.371094 66.359375 521.113281 66.171875 520.832031 C 65.988281 520.554688 65.828125 520.257812 65.703125 519.949219 C 65.574219 519.636719 65.476562 519.316406 65.410156 518.988281 C 65.34375 518.660156 65.3125 518.324219 65.3125 517.988281 C 65.3125 517.652344 65.34375 517.320312 65.410156 516.992188 C 65.476562 516.660156 65.574219 516.34375 65.703125 516.03125 C 65.828125 515.722656 65.988281 515.425781 66.171875 515.148438 C 66.359375 514.867188 66.570312 514.609375 66.808594 514.371094 C 67.046875 514.132812 67.304688 513.921875 67.585938 513.734375 C 67.863281 513.546875 68.15625 513.390625 68.46875 513.261719 C 68.777344 513.132812 69.097656 513.035156 69.425781 512.972656 C 69.757812 512.90625 70.089844 512.871094 70.425781 512.871094 C 70.761719 512.871094 71.09375 512.90625 71.421875 512.972656 C 71.75 513.035156 72.070312 513.132812 72.382812 513.261719 C 72.691406 513.390625 72.984375 513.546875 73.265625 513.734375 C 73.542969 513.921875 73.800781 514.132812 74.039062 514.371094 C 74.277344 514.609375 74.488281 514.867188 74.675781 515.148438 C 74.863281 515.425781 75.019531 515.722656 75.148438 516.03125 C 75.277344 516.34375 75.375 516.660156 75.4375 516.992188 C 75.503906 517.320312 75.535156 517.652344 75.535156 517.988281 Z M 75.535156 517.988281 "/><path style=" stroke:none;fill-rule:nonzero;fill:#ed1c24;fill-opacity:1;" d="M 72.324219 497.152344 C 72.402344 497.613281 72.382812 498.074219 72.277344 498.53125 C 72.167969 498.984375 71.980469 499.402344 71.707031 499.785156 C 71.433594 500.164062 71.097656 500.476562 70.699219 500.722656 C 70.300781 500.96875 69.871094 501.128906 69.40625 501.203125 C 68.945312 501.28125 68.488281 501.261719 68.03125 501.15625 C 67.574219 501.046875 67.160156 500.855469 66.777344 500.582031 C 66.398438 500.308594 66.085938 499.972656 65.839844 499.574219 C 65.59375 499.175781 65.433594 498.746094 65.359375 498.285156 C 65.285156 497.820312 65.300781 497.363281 65.40625 496.90625 C 65.515625 496.449219 65.707031 496.03125 65.980469 495.652344 C 66.253906 495.273438 66.589844 494.960938 66.988281 494.714844 C 67.386719 494.46875 67.816406 494.304688 68.277344 494.230469 C 68.738281 494.15625 69.199219 494.171875 69.652344 494.28125 C 70.109375 494.386719 70.527344 494.578125 70.90625 494.851562 C 71.285156 495.125 71.597656 495.460938 71.84375 495.859375 C 72.089844 496.257812 72.25 496.691406 72.324219 497.152344 Z M 72.324219 497.152344 "/><path style=" stroke:none;fill-rule:nonzero;fill:#ed1c24;fill-opacity:1;" d="M 86.824219 529.195312 C 86.898438 529.660156 86.882812 530.117188 86.777344 530.574219 C 86.667969 531.03125 86.476562 531.449219 86.203125 531.828125 C 85.929688 532.207031 85.59375 532.519531 85.195312 532.765625 C 84.796875 533.011719 84.367188 533.171875 83.90625 533.25 C 83.445312 533.324219 82.984375 533.308594 82.53125 533.199219 C 82.074219 533.089844 81.65625 532.902344 81.277344 532.628906 C 80.898438 532.351562 80.585938 532.015625 80.339844 531.617188 C 80.09375 531.21875 79.933594 530.789062 79.859375 530.328125 C 79.78125 529.863281 79.800781 529.40625 79.90625 528.949219 C 80.015625 528.496094 80.203125 528.078125 80.476562 527.695312 C 80.75 527.316406 81.085938 527.003906 81.484375 526.757812 C 81.882812 526.511719 82.3125 526.351562 82.777344 526.273438 C 83.238281 526.199219 83.695312 526.214844 84.152344 526.324219 C 84.609375 526.433594 85.023438 526.621094 85.40625 526.898438 C 85.785156 527.171875 86.097656 527.507812 86.34375 527.90625 C 86.589844 528.304688 86.75 528.734375 86.824219 529.195312 Z M 86.824219 529.195312 "/><g clip-rule="nonzero" clip-path="url(#e2844c1f39)"><path style=" stroke:none;fill-rule:nonzero;fill:#ed1c24;fill-opacity:1;" d="M 89.109375 471.332031 C 89.183594 471.792969 89.167969 472.253906 89.0625 472.707031 C 88.953125 473.164062 88.761719 473.582031 88.488281 473.960938 C 88.214844 474.34375 87.878906 474.65625 87.480469 474.902344 C 87.082031 475.148438 86.652344 475.308594 86.191406 475.382812 C 85.730469 475.457031 85.269531 475.441406 84.816406 475.335938 C 84.359375 475.226562 83.941406 475.035156 83.5625 474.761719 C 83.183594 474.488281 82.871094 474.152344 82.625 473.753906 C 82.378906 473.355469 82.21875 472.925781 82.144531 472.460938 C 82.066406 472 82.085938 471.542969 82.191406 471.085938 C 82.300781 470.628906 82.488281 470.210938 82.761719 469.832031 C 83.039062 469.453125 83.371094 469.140625 83.769531 468.890625 C 84.167969 468.644531 84.597656 468.484375 85.0625 468.410156 C 85.523438 468.335938 85.980469 468.351562 86.4375 468.460938 C 86.894531 468.566406 87.308594 468.757812 87.691406 469.03125 C 88.070312 469.304688 88.382812 469.640625 88.628906 470.039062 C 88.875 470.4375 89.035156 470.871094 89.109375 471.332031 Z M 89.109375 471.332031 "/></g><path style=" stroke:none;fill-rule:nonzero;fill:#ed1c24;fill-opacity:1;" d="M 64.027344 423.691406 C 64.457031 423.871094 64.839844 424.128906 65.171875 424.457031 C 65.503906 424.789062 65.757812 425.171875 65.9375 425.605469 C 66.117188 426.039062 66.203125 426.488281 66.203125 426.957031 C 66.203125 427.425781 66.117188 427.875 65.9375 428.308594 C 65.757812 428.742188 65.503906 429.121094 65.171875 429.453125 C 64.839844 429.785156 64.457031 430.039062 64.027344 430.21875 C 63.59375 430.398438 63.144531 430.488281 62.675781 430.488281 C 62.207031 430.488281 61.757812 430.398438 61.324219 430.21875 C 60.894531 430.039062 60.511719 429.785156 60.179688 429.453125 C 59.851562 429.121094 59.59375 428.742188 59.414062 428.308594 C 59.238281 427.875 59.148438 427.425781 59.148438 426.957031 C 59.148438 426.488281 59.238281 426.039062 59.414062 425.605469 C 59.59375 425.171875 59.851562 424.789062 60.179688 424.457031 C 60.511719 424.128906 60.894531 423.871094 61.324219 423.691406 C 61.757812 423.515625 62.207031 423.425781 62.675781 423.425781 C 63.144531 423.425781 63.59375 423.515625 64.027344 423.691406 Z M 64.027344 423.691406 "/><g clip-rule="nonzero" clip-path="url(#4bf02779cf)"><path style=" stroke:none;fill-rule:nonzero;fill:#ed1c24;fill-opacity:1;" d="M 817.472656 124.054688 C 817.453125 127.734375 816.703125 131.375 815.261719 134.765625 C 813.820312 138.152344 811.722656 141.21875 809.085938 143.789062 C 806.449219 146.355469 803.328125 148.375 799.902344 149.722656 C 796.480469 151.074219 792.824219 151.726562 789.144531 151.648438 C 773.703125 151.234375 761.21875 138.328125 761.480469 123.066406 C 761.675781 115.640625 764.773438 108.585938 770.113281 103.421875 C 775.449219 98.261719 782.601562 95.40625 790.023438 95.46875 C 797.453125 95.621094 804.515625 98.714844 809.660156 104.074219 C 814.808594 109.433594 817.617188 116.621094 817.472656 124.054688 Z M 817.472656 124.054688 "/></g><path style=" stroke:none;fill-rule:nonzero;fill:#ed1c24;fill-opacity:1;" d="M 880.71875 22.859375 C 877.347656 22.890625 874.007812 22.246094 870.890625 20.96875 C 867.769531 19.6875 864.9375 17.792969 862.5625 15.402344 C 860.1875 13.011719 858.3125 10.167969 857.046875 7.042969 C 855.785156 3.914062 855.160156 0.566406 855.210938 -2.804688 C 855.203125 -7.898438 856.707031 -12.882812 859.53125 -17.117188 C 862.359375 -21.355469 866.378906 -24.65625 871.082031 -26.601562 C 875.785156 -28.550781 880.960938 -29.054688 885.953125 -28.054688 C 890.941406 -27.050781 895.523438 -24.585938 899.113281 -20.976562 C 902.703125 -17.363281 905.140625 -12.769531 906.113281 -7.769531 C 907.089844 -2.765625 906.554688 2.40625 904.585938 7.105469 C 902.613281 11.800781 899.292969 15.804688 895.042969 18.613281 C 890.796875 21.417969 885.808594 22.894531 880.71875 22.859375 Z M 880.71875 22.859375 "/><g clip-rule="nonzero" clip-path="url(#79c76da7c5)"><path style=" stroke:none;fill-rule:nonzero;fill:#ed1c24;fill-opacity:1;" d="M 952.441406 146.652344 C 947.429688 146.675781 942.523438 145.214844 938.34375 142.449219 C 934.164062 139.683594 930.898438 135.738281 928.960938 131.113281 C 927.027344 126.488281 926.503906 121.390625 927.464844 116.46875 C 928.425781 111.546875 930.824219 107.023438 934.359375 103.46875 C 937.894531 99.910156 942.402344 97.484375 947.316406 96.496094 C 952.226562 95.507812 957.324219 96.003906 961.957031 97.914062 C 966.585938 99.828125 970.550781 103.074219 973.335938 107.242188 C 976.121094 111.410156 977.609375 116.3125 977.609375 121.324219 C 977.644531 124.648438 977.019531 127.945312 975.769531 131.023438 C 974.519531 134.105469 972.667969 136.90625 970.324219 139.261719 C 967.984375 141.621094 965.195312 143.484375 962.125 144.753906 C 959.054688 146.023438 955.761719 146.667969 952.441406 146.652344 Z M 952.441406 146.652344 "/></g><g clip-rule="nonzero" clip-path="url(#2cb791ae5b)"><path style=" stroke:none;fill-rule:nonzero;fill:#ed1c24;fill-opacity:1;" d="M 699.785156 122.640625 C 699.382812 136.3125 688.222656 147.53125 675.539062 147.054688 C 669.972656 146.835938 664.722656 144.425781 660.921875 140.351562 C 657.125 136.277344 655.089844 130.863281 655.257812 125.296875 C 655.597656 112.726562 667.839844 101.878906 681.105469 102.378906 C 692.179688 102.773438 700.101562 111.402344 699.785156 122.640625 Z M 699.785156 122.640625 "/></g><path style=" stroke:none;fill-rule:nonzero;fill:#ed1c24;fill-opacity:1;" d="M 722.578125 15.3125 C 726.847656 15.347656 731.007812 16.636719 734.542969 19.027344 C 738.078125 21.421875 740.832031 24.804688 742.453125 28.753906 C 744.074219 32.703125 744.492188 37.042969 743.65625 41.230469 C 742.820312 45.417969 740.769531 49.265625 737.753906 52.292969 C 734.742188 55.3125 730.902344 57.378906 726.722656 58.230469 C 722.539062 59.078125 718.199219 58.671875 714.246094 57.058594 C 710.296875 55.449219 706.90625 52.707031 704.507812 49.175781 C 702.109375 45.644531 700.804688 41.480469 700.761719 37.210938 C 700.730469 34.332031 701.273438 31.476562 702.355469 28.808594 C 703.441406 26.140625 705.046875 23.71875 707.078125 21.679688 C 709.109375 19.640625 711.527344 18.027344 714.1875 16.9375 C 716.847656 15.84375 719.703125 15.289062 722.578125 15.3125 Z M 722.578125 15.3125 "/><path style=" stroke:none;fill-rule:nonzero;fill:#ed1c24;fill-opacity:1;" d="M 811.511719 34.972656 C 811.511719 45.660156 802.613281 55.242188 792.558594 55.347656 C 781.953125 55.457031 772.789062 45.914062 772.894531 34.925781 C 772.941406 29.867188 774.945312 25.023438 778.484375 21.410156 C 782.023438 17.796875 786.824219 15.695312 791.878906 15.546875 C 794.449219 15.507812 797.003906 15.980469 799.386719 16.941406 C 801.773438 17.898438 803.945312 19.324219 805.773438 21.132812 C 807.597656 22.941406 809.050781 25.097656 810.035156 27.472656 C 811.019531 29.847656 811.523438 32.398438 811.511719 34.972656 Z M 811.511719 34.972656 "/><path style=" stroke:none;fill-rule:nonzero;fill:#ed1c24;fill-opacity:1;" d="M 879.691406 74.191406 C 890.902344 74.402344 898.71875 82.425781 898.402344 93.378906 C 898.355469 95.777344 897.835938 98.136719 896.871094 100.328125 C 895.902344 102.519531 894.507812 104.5 892.769531 106.144531 C 891.03125 107.792969 888.984375 109.078125 886.742188 109.921875 C 884.503906 110.769531 882.117188 111.160156 879.722656 111.074219 C 869.308594 110.734375 860.527344 101.648438 860.769531 91.492188 C 861.015625 81.332031 869.074219 73.988281 879.691406 74.191406 Z M 879.691406 74.191406 "/></g></svg>